<?xml version="1.0" encoding="UTF-8"?>
<svg id="uuid-bece05cf-1241-4611-9838-9f8959c0545c" data-name="Layer 1" xmlns="http://www.w3.org/2000/svg" viewBox="0 0 305.24 143.96">
  <g>
    <path d="M.99,77.27V-.87h25.32c9.59,0,15.85.39,18.76,1.17,4.48,1.17,8.23,3.72,11.25,7.65,3.02,3.93,4.53,9,4.53,15.22,0,4.8-.87,8.83-2.61,12.1-1.74,3.27-3.95,5.84-6.64,7.7-2.68,1.87-5.41,3.1-8.18,3.7-3.77.75-9.22,1.12-16.36,1.12h-10.29v29.48H.99ZM16.76,12.35v22.17h8.63c6.22,0,10.38-.41,12.47-1.23,2.1-.82,3.74-2.1,4.93-3.84,1.19-1.74,1.79-3.77,1.79-6.08,0-2.84-.84-5.19-2.51-7.04-1.67-1.85-3.78-3-6.34-3.46-1.88-.35-5.67-.53-11.35-.53h-7.62Z" fill="#474748" stroke-width="0"/>
    <path d="M73.31,77.27V-.87h15.78v78.14h-15.78Z" fill="#474748" stroke-width="0"/>
    <path d="M96.18,77.27l26.7-40.77L98.69-.87h18.44l15.67,25.1L148.15-.87h18.28l-24.3,37.95,26.7,40.19h-19.03l-17.32-27.02-17.38,27.02h-18.92Z" fill="#474748" stroke-width="0"/>
    <path d="M176.93,77.27V-.87h57.94v13.22h-42.16v17.32h39.23v13.17h-39.23v21.27h43.65v13.17h-59.43Z" fill="#474748" stroke-width="0"/>
    <path d="M250.17,77.27V-.23h15.78v64.33h39.23v13.17h-55.01Z" fill="#474748" stroke-width="0"/>
  </g>
  <g>
    <path d="M42.63,143.96v-40.04h8.15v33.24h20.27v6.8h-28.42Z" fill="#474748" stroke-width="0"/>
    <path d="M113.27,143.96h-8.87l-3.52-9.17h-16.14l-3.33,9.17h-8.65l15.72-40.37h8.62l16.16,40.37ZM98.26,127.99l-5.56-14.98-5.45,14.98h11.02Z" fill="#474748" stroke-width="0"/>
    <path d="M117.62,103.59h16.14c3.19,0,5.58.13,7.15.4s2.97.82,4.21,1.67c1.24.84,2.27,1.97,3.1,3.37.83,1.4,1.24,2.98,1.24,4.72,0,1.89-.51,3.63-1.53,5.2-1.02,1.58-2.4,2.76-4.14,3.55,2.46.72,4.35,1.94,5.67,3.66,1.32,1.73,1.98,3.75,1.98,6.09,0,1.84-.43,3.62-1.28,5.36-.85,1.73-2.02,3.12-3.5,4.16-1.48,1.04-3.3,1.68-5.47,1.91-1.36.15-4.64.24-9.83.28h-13.74v-40.37ZM125.77,110.31v9.34h5.34c3.18,0,5.15-.05,5.92-.14,1.4-.17,2.49-.65,3.29-1.45.8-.8,1.2-1.85,1.2-3.15s-.34-2.26-1.03-3.04c-.69-.78-1.71-1.25-3.07-1.42-.81-.09-3.13-.14-6.97-.14h-4.68ZM125.77,126.36v10.79h7.55c2.94,0,4.8-.08,5.59-.25,1.21-.22,2.2-.76,2.96-1.61.76-.85,1.14-2,1.14-3.43,0-1.21-.29-2.24-.88-3.08-.59-.84-1.44-1.46-2.55-1.85-1.11-.39-3.52-.58-7.23-.58h-6.58Z" fill="#474748" stroke-width="0"/>
    <path d="M199.82,129.12l7.9,2.51c-1.21,4.41-3.23,7.68-6.04,9.82-2.82,2.14-6.39,3.21-10.73,3.21-5.36,0-9.77-1.83-13.22-5.49-3.45-3.66-5.18-8.67-5.18-15.02,0-6.72,1.74-11.94,5.21-15.66,3.47-3.72,8.03-5.58,13.69-5.58,4.94,0,8.95,1.46,12.03,4.38,1.83,1.73,3.21,4.2,4.13,7.44l-8.07,1.93c-.48-2.09-1.47-3.75-2.99-4.96-1.51-1.21-3.36-1.82-5.52-1.82-2.99,0-5.42,1.07-7.28,3.22s-2.79,5.63-2.79,10.44c0,5.1.92,8.74,2.75,10.9,1.83,2.17,4.22,3.25,7.16,3.25,2.17,0,4.03-.69,5.59-2.07,1.56-1.38,2.68-3.54,3.36-6.5Z" fill="#474748" stroke-width="0"/>
    <path d="M213.06,124.02c0-4.11.61-7.56,1.84-10.35.92-2.06,2.17-3.9,3.76-5.54s3.33-2.85,5.22-3.64c2.51-1.06,5.42-1.6,8.7-1.6,5.95,0,10.71,1.85,14.28,5.54,3.57,3.69,5.36,8.82,5.36,15.39s-1.77,11.62-5.31,15.3c-3.54,3.68-8.28,5.52-14.21,5.52s-10.78-1.83-14.32-5.49c-3.54-3.66-5.31-8.71-5.31-15.13ZM221.46,123.75c0,4.57,1.06,8.04,3.17,10.4,2.11,2.36,4.79,3.54,8.04,3.54s5.92-1.17,8-3.51c2.08-2.34,3.13-5.85,3.13-10.53s-1.01-8.08-3.04-10.35c-2.03-2.28-4.72-3.41-8.08-3.41s-6.07,1.15-8.12,3.46c-2.06,2.3-3.08,5.78-3.08,10.42Z" fill="#474748" stroke-width="0"/>
  </g>
</svg>