<?xml version="1.0" standalone="no"?>
<!DOCTYPE svg PUBLIC "-//W3C//DTD SVG 20010904//EN"
 "http://www.w3.org/TR/2001/REC-SVG-20010904/DTD/svg10.dtd">
<svg version="1.0" xmlns="http://www.w3.org/2000/svg"
 width="260.000000pt" height="260.000000pt" viewBox="0 0 260.000000 260.000000"
 preserveAspectRatio="xMidYMid meet">
<metadata>
Created by potrace 1.14, written by Peter Selinger 2001-2017
</metadata>
<g transform="translate(0.000000,260.000000) scale(0.100000,-0.100000)"
fill="#000000" stroke="none">
<path d="M68 1913 c-2 -4 -4 -147 -4 -318 l1 -310 59 -3 c33 -2 62 1 65 7 4 5
6 57 5 116 0 69 3 108 10 110 6 2 56 5 112 8 116 4 163 24 204 84 36 53 40
162 8 217 -28 48 -63 75 -112 86 -48 11 -343 13 -348 3z m324 -134 c35 -35 37
-78 4 -115 -21 -26 -30 -28 -113 -32 l-89 -4 0 91 0 92 85 -2 c79 -2 87 -4
113 -30z"/>
<path d="M660 1600 l0 -320 65 0 65 0 0 320 0 320 -65 0 -65 0 0 -320z"/>
<path d="M895 1868 c18 -29 64 -99 100 -155 l66 -101 -83 -124 c-45 -68 -95
-142 -110 -165 l-29 -43 78 0 78 0 70 109 71 109 69 -109 70 -108 78 -1 c71 0
77 1 68 18 -6 9 -55 84 -109 166 l-100 149 33 51 c18 28 62 96 99 151 l66 100
-71 3 c-81 3 -70 12 -150 -111 l-52 -78 -63 95 -64 96 -75 0 -75 0 35 -52z"/>
<path d="M1509 1918 c-1 -2 -2 -146 -3 -320 l-1 -318 242 0 243 0 0 55 0 55
-178 0 -178 0 0 83 1 82 160 5 160 5 0 50 -1 50 -161 3 -160 2 0 70 1 70 171
0 171 0 1 55 0 55 -233 0 c-129 0 -235 -1 -235 -2z"/>
<path d="M2099 1918 c-1 -4 -1 -610 0 -625 1 -10 53 -13 224 -13 l224 0 0 55
0 55 -159 0 -158 0 -1 43 c0 23 0 142 0 265 l0 222 -64 0 c-36 0 -65 -1 -66
-2z"/>
<path d="M1590 1050 c-46 -24 -71 -69 -75 -137 -8 -112 43 -174 145 -179 50
-3 61 0 92 26 49 41 54 66 15 79 -38 14 -37 14 -37 -4 0 -22 -41 -55 -69 -55
-51 1 -81 46 -81 121 0 66 23 107 63 114 40 8 73 -6 82 -34 4 -14 13 -19 32
-17 80 9 -6 106 -92 106 -22 -1 -56 -9 -75 -20z"/>
<path d="M1922 1054 c-13 -6 -36 -29 -50 -49 -23 -32 -27 -48 -27 -109 0 -87
21 -128 80 -156 78 -38 170 -15 211 53 30 50 27 162 -6 210 -14 20 -41 43 -60
52 -40 18 -112 18 -148 -1z m134 -57 c23 -20 28 -34 31 -83 7 -99 -40 -158
-111 -140 -44 11 -68 60 -63 135 3 55 7 67 31 87 35 30 77 31 112 1z"/>
<path d="M456 903 c1 -87 2 -161 3 -165 0 -5 53 -8 116 -8 l115 0 0 25 c0 25
-1 25 -86 25 l-86 0 2 73 c1 39 2 102 1 140 l-1 67 -33 0 -32 0 1 -157z"/>
<path d="M809 1033 c-6 -15 -33 -90 -59 -166 l-49 -138 36 3 c32 3 38 8 48 38
12 35 12 35 77 38 61 3 65 1 76 -23 7 -14 12 -32 12 -40 0 -11 12 -15 39 -15
l39 0 -35 98 c-19 53 -45 126 -57 162 l-23 65 -46 3 c-43 3 -48 1 -58 -25z
m66 -62 c2 -11 7 -26 10 -31 3 -5 8 -18 10 -27 2 -10 6 -26 10 -35 6 -16 1
-18 -40 -18 l-47 0 7 33 c9 41 36 109 42 104 2 -2 5 -14 8 -26z"/>
<path d="M1064 895 l0 -166 107 2 c95 1 110 4 135 24 25 20 29 30 29 70 0 37
-5 50 -25 65 -23 17 -23 20 -8 37 9 10 17 29 19 43 6 67 -36 90 -163 90 l-93
0 -1 -165z m190 93 c20 -33 -4 -53 -68 -56 l-56 -3 0 41 0 41 56 -3 c41 -2 60
-8 68 -20z m0 -124 c19 -18 21 -55 4 -72 -7 -7 -38 -12 -70 -12 l-58 0 0 50 0
50 54 0 c36 0 60 -5 70 -16z"/>
</g>
</svg>
