<?xml version="1.0" encoding="UTF-8"?>
<svg id="uuid-86902dd6-fd53-40bd-ba58-1745e7e0e420" data-name="Layer 1" xmlns="http://www.w3.org/2000/svg" viewBox="0 0 190.86 175.33">
  <path d="M81.93-68.44C979.06-216.27,1341.87,136.92,1779.88,74.14v-206.93H-141.87V-4.85c22.51-2.29,80.74-40.01,223.81-63.59Z" fill="#d3e2ee" stroke-width="0"/>
  <polygon points="114.5 123.04 94.09 106.8 72.75 123.04 72.75 152.89 87.23 172.42 95.35 172.42 114.5 159.69 114.5 123.04" fill="#f04f66" stroke-width="0"/>
  <g>
    <path d="M49.39,75.47c-3.09,0-5.59,2.5-5.59,5.59s2.5,5.59,5.59,5.59,5.59-2.5,5.59-5.59-2.5-5.59-5.59-5.59Z" fill="#474748" stroke-width="0"/>
    <path d="M69.43,86.65c3.09,0,5.59-2.5,5.59-5.59s-2.5-5.59-5.59-5.59-5.59,2.5-5.59,5.59,2.5,5.59,5.59,5.59Z" fill="#474748" stroke-width="0"/>
    <path d="M53.81,95.39c0,3.09,2.5,5.59,5.59,5.59s5.59-2.5,5.59-5.59-2.5-5.59-5.59-5.59-5.59,2.5-5.59,5.59Z" fill="#474748" stroke-width="0"/>
    <path d="M115.85,81.06c0,3.09,2.5,5.59,5.59,5.59s5.59-2.5,5.59-5.59-2.5-5.59-5.59-5.59-5.59,2.5-5.59,5.59Z" fill="#474748" stroke-width="0"/>
    <path d="M135.88,81.06c0,3.09,2.5,5.59,5.59,5.59s5.59-2.5,5.59-5.59-2.5-5.59-5.59-5.59-5.59,2.5-5.59,5.59Z" fill="#474748" stroke-width="0"/>
    <path d="M131.46,100.99c3.09,0,5.59-2.5,5.59-5.59s-2.5-5.59-5.59-5.59-5.59,2.5-5.59,5.59,2.5,5.59,5.59,5.59Z" fill="#474748" stroke-width="0"/>
    <path d="M167.48,76.13c-2.9,0-5.25,2.35-5.25,5.25v5.18c0,16.97-13.81,30.78-30.78,30.78-3.84,0-7.5-.74-10.89-2.03v-.48h-1.25c-10.94-4.72-18.63-15.6-18.64-28.25,0,0,0-.02,0-.03v-13.1c1.38-.62,2.68-1.48,3.82-2.62l11.39-11.39.03-.03c5.09-5.09,5.89-13.2,1.59-18.97-5.41-7.26-15.73-7.81-21.88-1.65l-.19.19-.19-.19c-6.15-6.15-16.48-5.6-21.88,1.65-4.3,5.77-3.5,13.88,1.59,18.97l.03.03,11.39,11.39c1.14,1.14,2.44,2,3.82,2.62v13.1s0,.01,0,.02c0,1.19-.07,2.29-.21,3.43-1.26,11.24-8.61,20.8-18.98,25.03h-1.32v.49c-.4.14-.8.3-1.21.42-2.94.91-5.99,1.38-9.06,1.38-16.97,0-30.78-13.81-30.78-30.78v-5.18c0-2.9-2.35-5.25-5.25-5.25s-5.25,2.35-5.25,5.25v5.18c0,22.76,18.51,41.27,41.27,41.27,3.47,0,6.91-.47,10.27-1.34v23.43c0,14.03,11.42,25.44,25.45,25.44s25.44-11.41,25.44-25.44v-23.59c3.48.95,7.12,1.51,10.89,1.51,22.76,0,41.27-18.51,41.27-41.27v-5.18c0-2.9-2.35-5.25-5.25-5.25ZM111.75,149.92c0,9.17-7.46,16.62-16.62,16.62s-16.64-7.46-16.64-16.62v-26.82c4.7-2.46,8.84-5.76,12.23-9.71v27.08c0,2.43,1.97,4.41,4.41,4.41s4.41-1.97,4.41-4.41v-27.79c3.37,4.11,7.52,7.57,12.22,10.14v27.11Z" fill="#474748" stroke-width="0"/>
    <circle cx="49.35" cy="16.46" r="12.27" transform="translate(13.71 54.37) rotate(-65.21)" fill="#474748" stroke-width="0"/>
    <circle cx="141.51" cy="16.46" r="12.27" transform="translate(96.78 151.73) rotate(-78.34)" fill="#474748" stroke-width="0"/>
  </g>
</svg>