<?xml version="1.0" encoding="UTF-8"?>
<svg id="uuid-f4f50a41-471b-460c-bbfc-b02ed2cef187" data-name="Layer 1" xmlns="http://www.w3.org/2000/svg" viewBox="0 0 183.78 183.78">
  <path d="M159.87,35.29c2.16,0,4.14.91,5.55,2.38,1.47,1.42,2.38,3.4,2.38,5.55v79.72c0,2.15-.91,4.14-2.38,5.61-1.41,1.41-3.4,2.32-5.55,2.32h-7.36s-8.22,0-8.22,0l.22,8.26.85,24.59-44.53-31.39-4.59-1.46H23.91c-2.16,0-4.14-.91-5.55-2.32-1.47-1.47-2.38-3.47-2.38-5.61V43.22c0-2.16.91-4.14,2.38-5.55,1.41-1.47,3.4-2.38,5.55-2.38h135.96ZM23.91,19.31c-6.58,0-12.52,2.72-16.89,7.03C2.71,30.7,0,36.65,0,43.22v79.72c0,6.57,2.71,12.58,7.01,16.88,4.37,4.36,10.31,7.03,16.89,7.03h69.85s45.89,32.35,45.89,32.35c2.83,2.04,6.46,3.01,9.8,2.89,1.82-.06,3.57-.4,5.1-1.07,1.92-.85,3.68-2.16,4.93-3.97,1.41-1.92,2.15-4.3,2.04-7.03l-.74-23.17c6.18-.22,11.85-2.89,15.99-7.03,4.3-4.3,7.01-10.32,7.01-16.88V43.22c0-6.57-2.71-12.52-7.01-16.88-4.37-4.3-10.32-7.03-16.89-7.03H23.91Z" fill="#231f20" fill-rule="evenodd" stroke-width="0"/>
  <path d="M131.77,72.28c-6.86,0-12.47,5.61-12.47,12.47,0,6.91,5.61,12.52,12.47,12.52s12.52-5.61,12.52-12.52c0-6.86-5.61-12.47-12.52-12.47h0ZM90.3,72.28c-6.86,0-12.46,5.61-12.46,12.47,0,6.91,5.6,12.52,12.46,12.52,6.91,0,12.52-5.61,12.52-12.52,0-6.86-5.61-12.47-12.52-12.47h0ZM52,72.28c-6.91,0-12.52,5.61-12.52,12.47,0,6.91,5.61,12.52,12.52,12.52,6.86,0,12.46-5.61,12.46-12.52,0-6.86-5.6-12.47-12.46-12.47h0Z" fill="#231f20" fill-rule="evenodd" stroke-width="0"/>
</svg>