<?xml version="1.0" encoding="UTF-8"?>
<svg id="uuid-72b06e95-0459-4061-8fc4-4bca2922c538" data-name="Layer 1" xmlns="http://www.w3.org/2000/svg" viewBox="0 0 60.89 29.71">
  <g>
    <path d="M.33,16.41V.83h5.05c1.91,0,3.16.08,3.74.23.89.23,1.64.74,2.24,1.53s.9,1.79.9,3.03c0,.96-.17,1.76-.52,2.41-.35.65-.79,1.16-1.32,1.54-.54.37-1.08.62-1.63.74-.75.15-1.84.22-3.26.22h-2.05v5.88H.33ZM3.48,3.47v4.42h1.72c1.24,0,2.07-.08,2.49-.24.42-.16.75-.42.98-.77.24-.35.36-.75.36-1.21,0-.57-.17-1.03-.5-1.4-.33-.37-.75-.6-1.27-.69-.38-.07-1.13-.11-2.26-.11h-1.52Z" fill="#fff" stroke-width="0"/>
    <path d="M14.76,16.41V.83h3.15v15.58h-3.15Z" fill="#fff" stroke-width="0"/>
    <path d="M19.32,16.41l5.33-8.13L19.82.83h3.68l3.12,5.01,3.06-5.01h3.65l-4.85,7.57,5.33,8.02h-3.79l-3.46-5.39-3.47,5.39h-3.77Z" fill="#fff" stroke-width="0"/>
    <path d="M35.42,16.41V.83h11.55v2.64h-8.41v3.45h7.82v2.63h-7.82v4.24h8.71v2.63h-11.85Z" fill="#fff" stroke-width="0"/>
    <path d="M50.03,16.41V.96h3.15v12.83h7.82v2.63h-10.97Z" fill="#fff" stroke-width="0"/>
  </g>
  <g>
    <path d="M8.64,29.71v-7.99h1.63v6.63h4.04v1.36h-5.67Z" fill="#fff" stroke-width="0"/>
    <path d="M22.73,29.71h-1.77l-.7-1.83h-3.22l-.66,1.83h-1.72l3.14-8.05h1.72l3.22,8.05ZM19.73,26.53l-1.11-2.99-1.09,2.99h2.2Z" fill="#fff" stroke-width="0"/>
    <path d="M23.6,21.66h3.22c.64,0,1.11.03,1.43.08s.59.16.84.33.45.39.62.67c.17.28.25.59.25.94,0,.38-.1.72-.3,1.04s-.48.55-.83.71c.49.14.87.39,1.13.73s.4.75.4,1.21c0,.37-.08.72-.26,1.07-.17.35-.4.62-.7.83-.29.21-.66.33-1.09.38-.27.03-.92.05-1.96.05h-2.74v-8.05ZM25.22,23v1.86h1.07c.63,0,1.03,0,1.18-.03.28-.03.5-.13.66-.29.16-.16.24-.37.24-.63s-.07-.45-.21-.61-.34-.25-.61-.28c-.16-.02-.62-.03-1.39-.03h-.93ZM25.22,26.2v2.15h1.5c.59,0,.96-.02,1.12-.05.24-.04.44-.15.59-.32.15-.17.23-.4.23-.68,0-.24-.06-.45-.18-.61-.12-.17-.29-.29-.51-.37s-.7-.12-1.44-.12h-1.31Z" fill="#fff" stroke-width="0"/>
    <path d="M39.99,26.75l1.58.5c-.24.88-.64,1.53-1.21,1.96-.56.43-1.27.64-2.14.64-1.07,0-1.95-.37-2.64-1.1-.69-.73-1.03-1.73-1.03-3,0-1.34.35-2.38,1.04-3.12.69-.74,1.6-1.11,2.73-1.11.98,0,1.78.29,2.4.87.37.34.64.84.82,1.48l-1.61.38c-.1-.42-.29-.75-.6-.99-.3-.24-.67-.36-1.1-.36-.6,0-1.08.21-1.45.64-.37.43-.56,1.12-.56,2.08,0,1.02.18,1.74.55,2.17.37.43.84.65,1.43.65.43,0,.8-.14,1.11-.41s.53-.71.67-1.3Z" fill="#fff" stroke-width="0"/>
    <path d="M42.63,25.74c0-.82.12-1.51.37-2.06.18-.41.43-.78.75-1.1.32-.33.66-.57,1.04-.73.5-.21,1.08-.32,1.74-.32,1.19,0,2.14.37,2.85,1.1.71.74,1.07,1.76,1.07,3.07s-.35,2.32-1.06,3.05c-.71.73-1.65,1.1-2.83,1.1s-2.15-.37-2.86-1.1-1.06-1.74-1.06-3.02ZM44.31,25.68c0,.91.21,1.6.63,2.07.42.47.96.71,1.6.71s1.18-.23,1.6-.7c.42-.47.62-1.17.62-2.1s-.2-1.61-.61-2.06c-.4-.45-.94-.68-1.61-.68s-1.21.23-1.62.69-.61,1.15-.61,2.08Z" fill="#fff" stroke-width="0"/>
  </g>
</svg>