<?xml version="1.0" encoding="UTF-8"?>
<svg id="uuid-3233c61b-d0a7-42ca-99e4-7444d87af8f5" data-name="Layer 1" xmlns="http://www.w3.org/2000/svg" viewBox="0 0 43.35 31.16">
  <path d="M42.44,4.87c-.5-1.92-1.97-3.42-3.83-3.94-3.38-.93-16.94-.93-16.94-.93,0,0-13.56,0-16.93.93-1.87.52-3.34,2.02-3.83,3.94-.9,3.47-.9,10.71-.9,10.71,0,0,0,7.24.9,10.72.5,1.92,1.97,3.42,3.83,3.93,3.38.93,16.93.93,16.93.93,0,0,13.56,0,16.94-.93,1.86-.51,3.33-2.02,3.83-3.93.91-3.47.91-10.72.91-10.72,0,0,0-7.24-.91-10.71ZM17.61,23.03v-13.55l10.84,6.77-10.84,6.77Z" fill="#fff" fill-rule="evenodd" stroke-width="0"/>
</svg>