<?xml version="1.0" encoding="UTF-8"?>
<svg id="uuid-a006c99c-574a-4d5d-8eee-f639d0499bc9" data-name="Layer 1" xmlns="http://www.w3.org/2000/svg" viewBox="0 0 183.78 183.78">
  <path d="M90.02,35.14c-26.09,0-47.33,21.24-47.33,47.33,0,11.87,7.41,24.26,9.68,27.79-.07-.08,14.93,23.49,16.25,34.26.28,2.3,2.23,4.03,4.54,4.03h34.43c2.3,0,4.26-1.73,4.54-4.02,1.43-11.61,15.59-34.35,15.59-34.35,2.22-3.44,9.62-15.83,9.62-27.71,0-26.09-21.24-47.33-47.33-47.33ZM87.55,19.46V4.61c0-2.55,2.06-4.61,4.61-4.61s4.61,2.06,4.61,4.61v14.85c0,2.55-2.06,4.61-4.61,4.61-2.55,0-4.61-2.06-4.61-4.61ZM57.44,28.56l-7.42-12.86c-1.27-2.21-.52-5.03,1.69-6.3,2.21-1.27,5.03-.52,6.3,1.69l7.43,12.86c1.27,2.21.52,5.03-1.69,6.3-2.21,1.27-5.03.52-6.3-1.69ZM35.92,51.49l-12.86-7.42c-2.21-1.27-2.96-4.09-1.69-6.3,1.27-2.21,4.09-2.96,6.3-1.69l12.86,7.42c2.21,1.27,2.96,4.09,1.69,6.3s-4.09,2.96-6.3,1.69ZM28.74,82.11h-14.85c-2.55,0-4.61-2.06-4.61-4.61s2.06-4.61,4.61-4.61h14.85c2.55,0,4.61,2.06,4.61,4.61s-2.06,4.61-4.61,4.61ZM37.83,112.21l-12.86,7.43c-2.21,1.27-5.03.52-6.3-1.69-1.27-2.21-.52-5.03,1.69-6.3l12.86-7.42c2.21-1.27,5.03-.52,6.3,1.69s.52,5.03-1.69,6.3ZM143.01,108.89l12.86,7.42c2.21,1.27,2.96,4.09,1.69,6.3s-4.09,2.96-6.3,1.69l-12.86-7.42c-2.21-1.27-2.96-4.09-1.69-6.3,1.27-2.21,4.09-2.96,6.3-1.69ZM150.19,78.27h14.85c2.55,0,4.61,2.06,4.61,4.61s-2.06,4.61-4.61,4.61h-14.85c-2.55,0-4.61-2.06-4.61-4.61s2.06-4.61,4.61-4.61ZM141.09,48.16l12.86-7.42c2.21-1.27,5.03-.52,6.3,1.69,1.27,2.21.52,5.03-1.69,6.3l-12.86,7.42c-2.21,1.27-5.03.52-6.3-1.69-1.27-2.21-.52-5.03,1.69-6.3ZM118.16,26.64l7.42-12.86c1.27-2.21,4.09-2.96,6.3-1.69,2.21,1.27,2.96,4.09,1.69,6.3l-7.43,12.86c-1.27,2.21-4.09,2.96-6.3,1.69-2.21-1.27-2.96-4.09-1.69-6.3ZM71.01,169.84c0,4.37,5.23,8.09,12.54,9.47.3,2.51,2.42,4.46,5.01,4.46h2.68c2.59,0,4.72-1.95,5.01-4.46,7.31-1.39,12.54-5.11,12.54-9.47v-12.59h-37.79v12.59h0Z" fill="#4c86c6" stroke-width="0"/>
</svg>