<?xml version="1.0" encoding="UTF-8"?>
<svg id="uuid-b218fec4-6cd8-4611-8775-7b0ae013e9aa" data-name="Layer 1" xmlns="http://www.w3.org/2000/svg" viewBox="0 0 183.78 183.78">
  <path d="M51.92,93.95l-37.57-3.06,28.68-28.68c3.91-3.91,9.34-5.9,14.85-5.45l13.76,1.12c-8.17,13.54-16,28.7-19.72,36.07ZM127.02,125.9l-1.12-13.76c-13.54,8.17-28.7,16-36.07,19.72l3.06,37.57,28.68-28.68c3.91-3.91,5.9-9.34,5.45-14.85ZM136.17,47.61c-6.7-6.7-17.57-6.7-24.28,0-6.7,6.7-6.7,17.57,0,24.28,6.7,6.7,17.57,6.7,24.28,0,6.7-6.7,6.7-17.57,0-24.28ZM162.67,21.1c6.37,6.37,11.78,13.31,16.23,20.64-6.58,20.42-19.53,38.89-36.88,53.22-16.53,13.8-58.92,34.53-58.92,34.53l-28.83-28.83s20.73-42.39,34.53-58.92c14.33-17.35,32.81-30.29,53.22-36.88,7.33,4.46,14.28,9.87,20.64,16.23ZM140.21,43.57c-8.93-8.93-23.42-8.93-32.35,0-8.93,8.93-8.93,23.42,0,32.36,8.93,8.93,23.42,8.93,32.35,0,8.93-8.93,8.93-23.42,0-32.36ZM166.29,17.49c5.47,5.47,10.31,11.39,14.5,17.67,2.79-11.15,3.69-22.79,2.41-34.58-11.79-1.28-23.43-.38-34.58,2.41,6.27,4.19,12.19,9.03,17.67,14.5ZM40.11,109.11l34.55,34.55,5.15-10.19-29.52-29.52-10.19,5.15Z" fill="#f04923" stroke-width="0"/>
  <g>
    <path d="M.13,183.67c-.15-.15-.17-.39-.03-.56,12.86-15.47,33.47-38.58,36.98-42.18,4.1-4.22,8.97-9.36,14.28-9.41.24,0,.47.1.64.27h0c.18.18.28.43.27.68-.05,1.76-.8,4.42-2.46,6.7-.59.83-2.43,2.85-3.08,3.56-6.01,6.51-9.39,8.86-18.51,17.15-9.24,8.36-19.01,16.74-27.53,23.81-.17.14-.41.12-.56-.03H.13Z" fill="#f04923" stroke-width="0"/>
    <g>
      <path d="M19.68,183.55c-.1-.1-.11-.27-.02-.38,8.73-10.5,22.73-26.2,25.11-28.64,2.82-2.9,6.17-6.45,9.83-6.39.07,0,.15.03.2.08l.2.2c.05.05.08.12.08.2,0,1.19-.49,3.09-1.67,4.71-.4.56-1.65,1.94-2.09,2.41-4.08,4.42-6.37,6.02-12.57,11.65-6.27,5.68-12.91,11.36-18.69,16.17-.11.09-.28.08-.38-.02h0Z" fill="#f04923" stroke-width="0"/>
      <path d="M.24,164.1c-.1-.1-.11-.27-.02-.38,8.73-10.5,22.73-26.2,25.11-28.64,2.82-2.9,6.17-6.45,9.83-6.39.07,0,.15.03.2.08l.2.2c.05.05.08.12.08.2,0,1.19-.49,3.09-1.67,4.71-.4.56-1.65,1.94-2.09,2.41-4.08,4.42-6.37,6.02-12.57,11.65-6.27,5.68-12.91,11.36-18.69,16.17-.11.09-.28.08-.38-.02H.24Z" fill="#f04923" stroke-width="0"/>
    </g>
  </g>
</svg>