<?xml version="1.0" encoding="UTF-8"?>
<svg id="uuid-79813c78-377a-47da-9c42-cb95d4c16cec" data-name="Layer 1" xmlns="http://www.w3.org/2000/svg" viewBox="0 0 183.78 183.78">
  <path d="M91.89,183.78c-12.4,0-24.44-2.43-35.77-7.22-10.94-4.63-20.77-11.25-29.21-19.69-8.44-8.44-15.06-18.26-19.69-29.21C2.43,116.32,0,104.29,0,91.89s2.43-24.44,7.22-35.77c4.63-10.94,11.25-20.77,19.69-29.21,8.44-8.44,18.26-15.06,29.21-19.69C67.45,2.43,79.49,0,91.89,0s24.44,2.43,35.77,7.22c10.94,4.63,20.77,11.25,29.21,19.69,8.44,8.44,15.06,18.26,19.69,29.21,4.79,11.33,7.22,23.37,7.22,35.77s-2.43,24.44-7.22,35.77c-4.63,10.94-11.25,20.77-19.69,29.21-8.44,8.44-18.26,15.06-29.21,19.69-11.33,4.79-23.37,7.22-35.77,7.22ZM91.89,13.1c-10.64,0-20.96,2.08-30.66,6.19-9.38,3.97-17.81,9.65-25.04,16.89-7.24,7.24-12.92,15.66-16.89,25.04-4.11,9.71-6.19,20.03-6.19,30.66s2.08,20.96,6.19,30.66c3.97,9.38,9.65,17.81,16.89,25.04,7.24,7.24,15.66,12.92,25.04,16.89,9.71,4.11,20.03,6.19,30.66,6.19s20.96-2.08,30.66-6.19c9.38-3.97,17.81-9.65,25.04-16.89,7.24-7.24,12.92-15.66,16.89-25.04,4.11-9.71,6.19-20.03,6.19-30.66s-2.08-20.96-6.19-30.66c-3.97-9.38-9.65-17.81-16.89-25.04-7.24-7.24-15.66-12.92-25.04-16.89-9.71-4.11-20.03-6.19-30.66-6.19Z" fill="#fed700" stroke-width="0"/>
  <ellipse cx="58.55" cy="80.29" rx="12.6" ry="16.07" fill="#fed700" stroke-width="0"/>
  <ellipse cx="125.23" cy="80.29" rx="12.6" ry="16.07" fill="#fed700" stroke-width="0"/>
  <path d="M91.89,148.85c-8.17,0-16.14-2.26-23.05-6.55-6.71-4.16-12.19-10.06-15.83-17.06-1.67-3.21-.42-7.17,2.79-8.84,3.21-1.67,7.17-.42,8.84,2.79,5.32,10.21,15.76,16.55,27.26,16.55s21.94-6.34,27.26-16.55c1.67-3.21,5.63-4.46,8.84-2.79,3.21,1.67,4.46,5.63,2.79,8.84-3.64,7-9.12,12.9-15.83,17.06-6.91,4.28-14.88,6.55-23.05,6.55Z" fill="#fed700" stroke-width="0"/>
</svg>